<svg width="105" height="60" viewBox="0 0 105 60" fill="none" xmlns="http://www.w3.org/2000/svg">
<g clip-path="url(#clip0_6285_612)">
<path d="M52.1513 0C41.1109 0 32.1278 8.98305 32.1278 20.0235C32.1278 31.0639 41.1109 40.0469 52.1513 40.0469C63.1917 40.0469 72.1747 31.0639 72.1747 20.0235C72.1747 8.98305 63.1917 0 52.1513 0ZM52.1513 4.46936C60.7406 4.46936 67.7054 11.4342 67.7054 20.0235C67.7054 28.6128 60.7406 35.5776 52.1513 35.5776C43.562 35.5776 36.5972 28.6128 36.5972 20.0235C36.5972 11.4342 43.562 4.46936 52.1513 4.46936Z" fill="white"/>
<path d="M77.468 59.9996V49.9813H71.8018L72.6675 47.7675C72.863 47.2643 73.3454 46.9331 73.8852 46.9331H87.4654L86.5997 49.1652C86.4041 49.6684 85.9217 49.9813 85.3819 49.9813H81.3402V59.9996H77.4706H77.468Z" fill="white"/>
<path d="M3.87223 56.2369V50.6332C3.87223 50.2708 4.16428 49.9787 4.52673 49.9787H13.2855C13.8227 49.9787 14.3077 49.6476 14.5033 49.1469L15.3664 46.9331H3.7575C2.79531 46.9331 1.83312 47.319 1.10039 48.0517C0.367666 48.7871 0 49.7467 0 50.7115V56.2186C0 57.1782 0.367666 58.143 1.10039 58.8731C1.83312 59.6085 2.79531 59.9996 3.7575 59.9996H12.9387C13.4785 59.9996 13.9609 59.6684 14.1565 59.1652L15.0378 56.8914H4.52673C4.16688 56.8914 3.87223 56.5993 3.87223 56.2369Z" fill="white"/>
<path d="M20.618 46.9331C19.6558 46.9331 18.6962 47.3164 17.9609 48.0517C17.2281 48.7845 16.8605 49.7467 16.8605 50.7089V59.9996H20.7327V56.4872H27.6062C28.146 56.4872 28.631 56.156 28.824 55.6528L29.674 53.4468H20.7327V50.6332C20.7327 50.2708 21.0247 49.9787 21.3872 49.9787H30.0782C30.618 49.9787 31.1004 49.6476 31.2959 49.1443L32.1512 46.9331H20.618Z" fill="white"/>
<path d="M42.9465 59.606L37.8514 52.636V59.9998H33.9791V46.9333H37.1447C37.5958 46.9333 38.0208 47.1523 38.279 47.5226L42.9491 54.1797L47.5593 47.5278C47.8175 47.1549 48.2425 46.9307 48.6988 46.9307H51.9192V59.9972H48.0469V52.6099L42.9491 59.6034L42.9465 59.606Z" fill="white"/>
<path d="M66.4876 56.2369C66.4876 56.5993 66.1956 56.8914 65.8331 56.8914H58.8605C58.5007 56.8914 58.206 56.5993 58.206 56.2369V50.6332C58.206 50.2708 58.4981 49.9787 58.8605 49.9787H65.8331C66.193 49.9787 66.4876 50.2708 66.4876 50.6332V56.2369ZM66.5972 46.9331H58.1017C56.0157 46.9331 54.3234 48.6228 54.3234 50.7115V56.2186C54.3234 58.3073 56.0183 59.9996 58.1069 59.9996H66.5919C68.6806 59.9996 70.3729 58.3073 70.3729 56.2186C70.3729 54.3829 70.3729 52.5472 70.3729 50.7115C70.3729 48.6254 68.6832 46.9331 66.5972 46.9331Z" fill="white"/>
<path d="M100.417 56.2369C100.417 56.5993 100.125 56.8914 99.7627 56.8914H92.7901C92.4302 56.8914 92.1356 56.5993 92.1356 56.2369V50.6332C92.1356 50.2708 92.4276 49.9787 92.7901 49.9787H99.7627C100.123 49.9787 100.417 50.2708 100.417 50.6332V56.2369ZM100.527 46.9331H92.0313C89.9452 46.9331 88.2529 48.6228 88.2529 50.7115V56.2186C88.2529 58.3073 89.9478 59.9996 92.0365 59.9996H100.522C102.61 59.9996 104.302 58.3073 104.302 56.2186C104.302 54.3829 104.302 52.5472 104.302 50.7115C104.302 48.6254 102.613 46.9331 100.527 46.9331Z" fill="white"/>
<path d="M47.5046 17.3249C50.2008 17.3249 52.7823 18.2167 52.7823 18.2167C52.7823 18.2167 55.2412 19.0563 58.0756 19.0563C59.8201 19.0563 61.6063 18.806 62.7432 18.4826C63.4263 18.2871 63.9896 17.8047 64.1773 17.1189L65.1395 13.5778C65.1395 13.5778 62.1669 14.4331 59.3325 14.4331C56.4981 14.4331 54.0391 13.5934 54.0391 13.5934C54.0391 13.5934 51.4576 12.7017 48.7614 12.7017C47.0874 12.7017 45.2751 13.0459 44.1434 13.3066C43.455 13.4657 42.9074 13.9872 42.7223 14.6678L41.7549 18.2167L39.7366 25.63L39.5228 26.4122C39.5228 26.4122 42.5737 25.5204 45.2699 25.5204C47.9661 25.5204 50.5476 26.4122 50.5476 26.4122C50.5476 26.4122 53.0065 27.2519 55.8409 27.2519C57.5854 27.2519 59.4342 26.9937 60.5085 26.6782C61.1917 26.4774 61.7549 26.0002 61.9426 25.3144L62.9074 21.7734C62.9074 21.7734 59.9348 22.6286 57.1004 22.6286C54.266 22.6286 51.807 21.789 51.807 21.789C51.807 21.789 49.2256 20.8972 46.5293 20.8972C46.3572 20.8972 46.1851 20.8998 46.013 20.9077L46.9857 17.3353C47.1604 17.3275 47.3325 17.3249 47.502 17.3249" fill="white"/>
</g>
<defs>
<clipPath id="clip0_6285_612">
<rect width="104.302" height="60" fill="white"/>
</clipPath>
</defs>
</svg>
